<mxfile host="Electron" modified="2024-02-16T02:34:33.080Z" agent="Mozilla/5.0 (Windows NT 10.0; Win64; x64) AppleWebKit/537.36 (KHTML, like Gecko) draw.io/22.1.16 Chrome/120.0.6099.109 Electron/28.1.0 Safari/537.36" etag="5D721j1P4ZnD1_-tlKQh" version="22.1.16" type="device">
  <diagram name="Page-1" id="HIjSi9KREv8MwhdLXSr_">
    <mxGraphModel dx="1084" dy="951" grid="1" gridSize="10" guides="1" tooltips="1" connect="1" arrows="1" fold="1" page="1" pageScale="1" pageWidth="850" pageHeight="1100" math="0" shadow="0">
      <root>
        <mxCell id="0" />
        <mxCell id="1" parent="0" />
        <mxCell id="_pN9btb3Yc8dseJ0CBkM-16" value="" style="rounded=0;whiteSpace=wrap;html=1;fillColor=none;strokeColor=#E7157B;dashed=1;verticalAlign=top;fontStyle=1;fontSize=14;" parent="1" vertex="1">
          <mxGeometry x="730" y="160" width="150" height="220" as="geometry" />
        </mxCell>
        <mxCell id="_pN9btb3Yc8dseJ0CBkM-15" value="" style="rounded=0;whiteSpace=wrap;html=1;fillColor=none;strokeColor=#E7157B;dashed=1;verticalAlign=top;fontStyle=1;fontSize=14;" parent="1" vertex="1">
          <mxGeometry x="504" y="160" width="156" height="270" as="geometry" />
        </mxCell>
        <mxCell id="_pN9btb3Yc8dseJ0CBkM-1" value="Permissions" style="sketch=0;outlineConnect=0;fontColor=#232F3E;gradientColor=none;fillColor=#DD344C;strokeColor=none;dashed=0;verticalLabelPosition=top;verticalAlign=bottom;align=center;html=1;fontSize=12;fontStyle=0;aspect=fixed;pointerEvents=1;shape=mxgraph.aws4.permissions;labelPosition=center;spacingLeft=5;" parent="1" vertex="1">
          <mxGeometry x="551" y="279.5" width="62" height="78" as="geometry" />
        </mxCell>
        <mxCell id="_FMhOoLzj9-kQqhtt_di-1" style="edgeStyle=orthogonalEdgeStyle;rounded=0;orthogonalLoop=1;jettySize=auto;html=1;" edge="1" parent="1" source="_pN9btb3Yc8dseJ0CBkM-2" target="_pN9btb3Yc8dseJ0CBkM-3">
          <mxGeometry relative="1" as="geometry" />
        </mxCell>
        <mxCell id="_pN9btb3Yc8dseJ0CBkM-2" value="User" style="sketch=0;outlineConnect=0;fontColor=#232F3E;gradientColor=none;fillColor=#232F3D;strokeColor=none;dashed=0;verticalLabelPosition=middle;verticalAlign=middle;align=right;html=1;fontSize=12;fontStyle=0;aspect=fixed;pointerEvents=1;shape=mxgraph.aws4.user;labelPosition=left;spacingRight=5;" parent="1" vertex="1">
          <mxGeometry x="543" y="170.5" width="78" height="78" as="geometry" />
        </mxCell>
        <mxCell id="_pN9btb3Yc8dseJ0CBkM-3" value="" style="sketch=0;outlineConnect=0;fontColor=#232F3E;gradientColor=none;fillColor=#E7157B;strokeColor=none;dashed=0;verticalLabelPosition=bottom;verticalAlign=top;align=center;html=1;fontSize=12;fontStyle=0;aspect=fixed;pointerEvents=1;shape=mxgraph.aws4.template;" parent="1" vertex="1">
          <mxGeometry x="766" y="170.5" width="65" height="78" as="geometry" />
        </mxCell>
        <mxCell id="_FMhOoLzj9-kQqhtt_di-3" style="edgeStyle=orthogonalEdgeStyle;rounded=0;orthogonalLoop=1;jettySize=auto;html=1;" edge="1" parent="1" source="_pN9btb3Yc8dseJ0CBkM-4" target="_pN9btb3Yc8dseJ0CBkM-10">
          <mxGeometry relative="1" as="geometry" />
        </mxCell>
        <mxCell id="_pN9btb3Yc8dseJ0CBkM-4" value="CloudFormation" style="sketch=0;points=[[0,0,0],[0.25,0,0],[0.5,0,0],[0.75,0,0],[1,0,0],[0,1,0],[0.25,1,0],[0.5,1,0],[0.75,1,0],[1,1,0],[0,0.25,0],[0,0.5,0],[0,0.75,0],[1,0.25,0],[1,0.5,0],[1,0.75,0]];points=[[0,0,0],[0.25,0,0],[0.5,0,0],[0.75,0,0],[1,0,0],[0,1,0],[0.25,1,0],[0.5,1,0],[0.75,1,0],[1,1,0],[0,0.25,0],[0,0.5,0],[0,0.75,0],[1,0.25,0],[1,0.5,0],[1,0.75,0]];outlineConnect=0;fontColor=#232F3E;fillColor=#E7157B;strokeColor=#ffffff;dashed=0;verticalLabelPosition=top;verticalAlign=bottom;align=center;html=1;fontSize=12;fontStyle=0;aspect=fixed;shape=mxgraph.aws4.resourceIcon;resIcon=mxgraph.aws4.cloudformation;labelPosition=center;" parent="1" vertex="1">
          <mxGeometry x="976" y="170.5" width="78" height="78" as="geometry" />
        </mxCell>
        <mxCell id="_pN9btb3Yc8dseJ0CBkM-5" value="- cloudformation:*&lt;br&gt;- iam:PassRole" style="whiteSpace=wrap;html=1;align=left;fillColor=#f8cecc;strokeColor=#b85450;spacingLeft=5;" parent="1" vertex="1">
          <mxGeometry x="527" y="369.5" width="110" height="50" as="geometry" />
        </mxCell>
        <mxCell id="_pN9btb3Yc8dseJ0CBkM-8" value="" style="sketch=0;outlineConnect=0;fontColor=#232F3E;gradientColor=none;fillColor=#E7157B;strokeColor=none;dashed=0;verticalLabelPosition=bottom;verticalAlign=top;align=center;html=1;fontSize=12;fontStyle=0;aspect=fixed;pointerEvents=1;shape=mxgraph.aws4.stack;" parent="1" vertex="1">
          <mxGeometry x="1190" y="124.5" width="51.32" height="50" as="geometry" />
        </mxCell>
        <mxCell id="_pN9btb3Yc8dseJ0CBkM-10" value="Stack" style="rounded=0;whiteSpace=wrap;html=1;fillColor=none;strokeColor=#E7157B;dashed=1;verticalAlign=top;fontStyle=1;fontSize=14;" parent="1" vertex="1">
          <mxGeometry x="1190" y="124.5" width="190" height="170" as="geometry" />
        </mxCell>
        <mxCell id="_pN9btb3Yc8dseJ0CBkM-11" value="Amazon S3 Bucket" style="sketch=0;points=[[0,0,0],[0.25,0,0],[0.5,0,0],[0.75,0,0],[1,0,0],[0,1,0],[0.25,1,0],[0.5,1,0],[0.75,1,0],[1,1,0],[0,0.25,0],[0,0.5,0],[0,0.75,0],[1,0.25,0],[1,0.5,0],[1,0.75,0]];outlineConnect=0;fontColor=#232F3E;fillColor=#7AA116;strokeColor=#ffffff;dashed=0;verticalLabelPosition=bottom;verticalAlign=top;align=center;html=1;fontSize=12;fontStyle=0;aspect=fixed;shape=mxgraph.aws4.resourceIcon;resIcon=mxgraph.aws4.s3;" parent="1" vertex="1">
          <mxGeometry x="1246" y="184.5" width="78" height="78" as="geometry" />
        </mxCell>
        <mxCell id="_pN9btb3Yc8dseJ0CBkM-13" value="Service Role" style="sketch=0;outlineConnect=0;fontColor=#232F3E;gradientColor=none;fillColor=#DD344C;strokeColor=none;dashed=0;verticalLabelPosition=top;verticalAlign=bottom;align=center;html=1;fontSize=12;fontStyle=0;aspect=fixed;pointerEvents=1;shape=mxgraph.aws4.role;labelPosition=center;" parent="1" vertex="1">
          <mxGeometry x="766" y="280" width="78" height="44" as="geometry" />
        </mxCell>
        <mxCell id="_pN9btb3Yc8dseJ0CBkM-14" value="- s3:*Bucket" style="whiteSpace=wrap;html=1;align=left;fillColor=#f8cecc;strokeColor=#b85450;spacingLeft=5;" parent="1" vertex="1">
          <mxGeometry x="750" y="333" width="110" height="30" as="geometry" />
        </mxCell>
        <mxCell id="_FMhOoLzj9-kQqhtt_di-2" style="edgeStyle=orthogonalEdgeStyle;rounded=0;orthogonalLoop=1;jettySize=auto;html=1;entryX=0;entryY=0.5;entryDx=0;entryDy=0;entryPerimeter=0;" edge="1" parent="1" source="_pN9btb3Yc8dseJ0CBkM-3" target="_pN9btb3Yc8dseJ0CBkM-4">
          <mxGeometry relative="1" as="geometry" />
        </mxCell>
      </root>
    </mxGraphModel>
  </diagram>
</mxfile>
